<svg width="255" height="543" viewBox="0 0 255 543" fill="none" xmlns="http://www.w3.org/2000/svg">
<path d="M32.241 369.381C30.1537 363.526 26.6071 356.729 25.3214 357.159C24.0563 357.617 25.5663 365.131 27.6503 371.011C27.8432 371.552 28.0154 372.067 28.2117 372.584C27.8115 373.336 26.9494 374.929 25.8581 376.931C25.8615 376.907 25.8683 376.858 25.8717 376.834L25.3102 375.261C25.2379 375.079 25.0079 374.973 24.7748 375.063L23.2526 375.607C23.0194 375.696 22.8928 375.899 22.9617 376.105L23.5231 377.678C23.5231 377.678 23.6263 377.815 23.7189 377.853L24.3665 379.684C23.4394 381.39 22.4405 383.258 21.4484 385.077L20.9076 383.531C20.8353 383.349 20.6053 383.243 20.3722 383.333L18.8499 383.877C18.6168 383.966 18.4902 384.169 18.5591 384.375L19.1205 385.948C19.1205 385.948 19.2236 386.085 19.3163 386.123L19.9467 387.902C17.4494 392.571 15.3524 396.488 15.3526 396.66C15.3498 397.027 16.2484 399.334 16.2484 399.334C16.4413 399.876 16.6512 400.297 16.7266 400.283C16.7781 400.266 16.6228 399.632 16.4265 399.114L22.8878 391.184C23.0736 391.602 23.2765 391.901 23.3827 391.842C23.513 391.787 23.4574 391.314 23.2885 390.775L23.2953 390.727L24.5451 389.165C24.7103 389.556 24.9165 389.83 25.0434 389.799C25.1737 389.744 25.1181 389.27 24.9492 388.732L26.1065 387.303L27.1414 386.568C27.3411 387.061 27.5611 387.411 27.6914 387.356C27.8217 387.301 27.7661 386.828 27.5972 386.289L27.6006 386.265L29.6703 384.794C29.846 385.284 30.0901 385.637 30.2203 385.582C30.3506 385.527 30.295 385.054 30.1262 384.515L32.0314 383.168C33.4607 387.094 34.077 388.626 35.1103 391.54C36.1403 394.478 37.3449 397.221 38.4906 399.514C37.1256 402.065 34.3819 407.091 34.3819 407.091L34.8303 408.771L41.3347 404.521C41.6579 405.008 41.926 405.364 42.1356 405.615C42.6553 406.79 43.0166 407.527 43.1468 407.472C43.2737 407.441 43.1148 406.659 42.77 405.459C42.7695 405.116 42.7379 404.646 42.6547 404.022L50.4608 403.215L49.7552 401.621C49.7552 401.621 44.0816 399.3 41.5176 398.203C40.9755 395.799 40.2614 393.052 39.4716 390.148C38.1971 386.514 37.6664 384.895 36.5227 381.549L38.8482 381.388C39.0411 381.93 39.3264 382.337 39.4567 382.282C39.5869 382.227 39.5246 381.802 39.3969 381.319L41.9453 381.14L41.942 381.164C42.1589 381.709 42.4202 382.113 42.5504 382.058C42.6807 382.003 42.6183 381.578 42.4667 381.091L43.7289 381L45.5372 381.378C45.7301 381.92 46.0154 382.328 46.1457 382.273C46.2485 382.238 46.248 381.895 46.1376 381.463L48.114 381.865L48.1072 381.913C48.3241 382.458 48.5855 382.862 48.7397 382.811C48.8426 382.776 48.8455 382.409 48.7111 381.974L58.7305 384.052C58.9268 384.569 59.1849 385.169 59.2364 385.152C59.2878 385.135 59.2048 384.682 58.9913 384.113C58.9913 384.113 58.2469 381.754 57.9926 381.473C57.8861 381.36 53.7947 379.63 48.9173 377.569L48.2869 375.79C48.2869 375.79 48.3347 375.625 48.3243 375.525L47.7628 373.952C47.6905 373.77 47.4605 373.664 47.2274 373.754L45.7052 374.298C45.472 374.387 45.3454 374.59 45.4143 374.796L45.9552 376.342C44.0364 375.532 42.0937 374.718 40.2883 373.973L39.6407 372.142C39.6407 372.142 39.6885 371.977 39.6781 371.878L39.1166 370.304C39.0443 370.123 38.8143 370.017 38.5812 370.106L37.059 370.65C36.8259 370.74 36.6992 370.942 36.7681 371.148L37.3296 372.722C37.3296 372.722 37.3742 372.753 37.3948 372.78C35.3114 371.922 33.6707 371.225 32.8607 370.89C32.6884 370.376 32.4921 369.858 32.2992 369.316L32.241 369.381Z" fill="#4165AA"/>
<path d="M301.277 260.824C300.629 260.732 300.175 260.129 300.267 259.481C300.593 257.175 300.915 254.894 301.193 252.581C301.285 251.933 301.86 251.5 302.512 251.567C303.161 251.659 303.618 252.238 303.526 252.887C303.224 255.196 302.919 257.529 302.593 259.834C302.501 260.483 301.898 260.936 301.25 260.845L301.277 260.824ZM305.773 231.966C305.979 229.643 306.161 227.317 306.346 224.967C306.39 224.312 305.905 223.753 305.25 223.71C304.619 223.669 304.067 224.106 303.982 224.706C303.979 224.73 303.975 224.754 303.972 224.778C303.79 227.104 303.608 229.43 303.406 231.729C303.338 232.381 303.823 232.939 304.474 233.007C305.126 233.074 305.709 232.593 305.752 231.938L305.773 231.966ZM304.363 245.925C304.617 243.61 304.874 241.27 305.104 238.951C305.172 238.299 304.691 237.716 304.063 237.652C303.435 237.588 302.856 238.045 302.768 238.669L302.761 238.717C302.531 241.036 302.277 243.352 302.023 245.668C301.932 246.317 302.413 246.899 303.065 246.967C303.713 247.058 304.271 246.574 304.363 245.925ZM306.843 217.982C307.001 215.653 307.135 213.32 307.245 210.984C307.288 210.329 306.78 209.767 306.121 209.747C305.514 209.71 304.986 210.15 304.901 210.751C304.898 210.775 304.891 210.823 304.888 210.847C304.778 213.183 304.624 215.488 304.49 217.821C304.446 218.476 304.931 219.035 305.586 219.078C306.241 219.122 306.8 218.637 306.843 217.982ZM300.49 273.672C300.864 271.373 301.238 269.074 301.591 266.748C301.676 266.147 301.253 265.5 300.605 265.408C299.956 265.316 299.356 265.746 299.265 266.394C298.939 268.7 298.541 270.995 298.17 273.27L298.167 273.294C298.079 273.919 298.508 274.518 299.153 274.634C299.802 274.726 300.402 274.296 300.517 273.651L300.49 273.672ZM307.574 203.975C307.66 201.636 307.746 199.296 307.804 196.977C307.823 196.319 307.312 195.781 306.653 195.761C306.042 195.748 305.539 196.192 305.457 196.768C305.45 196.816 305.444 196.864 305.437 196.912C305.375 199.255 305.293 201.571 305.21 203.886C305.191 204.545 305.703 205.083 306.337 205.099C306.996 205.118 307.53 204.63 307.55 203.972L307.574 203.975ZM307.938 189.966C307.972 187.643 307.986 185.293 307.996 182.968C307.992 182.306 307.476 181.792 306.814 181.796C306.228 181.787 305.724 182.23 305.643 182.806C305.636 182.854 305.629 182.903 305.619 182.975C305.609 185.3 305.598 187.626 305.564 189.948C305.544 190.607 306.08 191.148 306.718 191.14C307.377 191.16 307.915 190.648 307.91 189.986L307.938 189.966ZM288.684 328.419C289.295 326.178 289.885 323.91 290.475 321.641C290.636 321.027 290.264 320.362 289.626 320.199C288.988 320.035 288.347 320.41 288.183 321.048C287.593 323.316 287.006 325.56 286.419 327.805C286.413 327.853 286.406 327.901 286.399 327.949C286.317 328.525 286.679 329.091 287.269 329.248C287.907 329.411 288.548 329.037 288.708 328.422L288.684 328.419ZM298.047 287.485C298.493 285.197 298.891 282.901 299.317 280.585C299.408 279.937 299.003 279.341 298.357 279.225C297.709 279.133 297.113 279.539 296.997 280.184C296.599 282.479 296.177 284.771 295.734 287.036L295.728 287.084C295.639 287.708 296.048 288.281 296.666 288.417C297.311 288.533 297.935 288.107 298.047 287.485ZM284.845 341.888C285.504 339.654 286.162 337.42 286.801 335.159C286.988 334.524 286.613 333.883 285.979 333.695C285.344 333.507 284.703 333.882 284.515 334.517C283.88 336.755 283.222 338.989 282.566 341.199C282.559 341.247 282.549 341.319 282.542 341.367C282.461 341.943 282.801 342.481 283.364 342.659C283.999 342.847 284.637 342.496 284.824 341.861L284.845 341.888ZM292.146 314.847C292.688 312.572 293.227 310.321 293.745 308.043C293.854 307.446 293.506 306.784 292.868 306.62C292.226 306.481 291.606 306.883 291.446 307.497C290.928 309.775 290.389 312.027 289.85 314.278C289.844 314.326 289.84 314.35 289.833 314.398C289.749 314.998 290.134 315.567 290.727 315.7C291.365 315.864 292.01 315.465 292.149 314.823L292.146 314.847ZM295.275 301.204C295.769 298.922 296.239 296.637 296.709 294.351L296.719 294.279C296.808 293.655 296.399 293.083 295.781 292.946C295.139 292.807 294.516 293.233 294.4 293.878C293.93 296.163 293.463 298.424 292.969 300.706L292.956 300.802C292.871 301.403 293.252 301.996 293.873 302.108C294.515 302.248 295.135 301.845 295.275 301.204ZM306.922 147.932C306.785 145.61 306.6 143.281 306.442 140.932C306.386 140.287 305.82 139.791 305.175 139.846C304.605 139.888 304.177 140.318 304.103 140.846C304.092 140.918 304.079 141.014 304.093 141.09C304.278 143.419 304.439 145.744 304.58 148.042C304.611 148.684 305.178 149.18 305.844 149.152C306.488 149.096 306.982 148.553 306.953 147.888L306.922 147.932ZM307.958 175.956C307.921 173.624 307.883 171.291 307.821 168.955C307.817 168.293 307.274 167.8 306.612 167.804C306.022 167.819 305.542 168.266 305.464 168.818C305.454 168.89 305.447 168.938 305.437 169.01C305.499 171.346 305.54 173.655 305.554 175.984C305.558 176.646 306.097 177.163 306.735 177.155C307.397 177.151 307.915 176.611 307.907 175.973L307.958 175.956ZM291.348 51.1977C290.761 48.9346 290.123 46.6887 289.509 44.4462C289.33 43.8084 288.671 43.4458 288.057 43.6285C287.598 43.7595 287.272 44.1545 287.208 44.6108C287.184 44.7789 287.188 44.9264 287.236 45.1047C287.874 47.3506 288.488 49.5931 289.078 51.8322C289.233 52.4666 289.892 52.8292 290.527 52.6739C291.161 52.5186 291.524 51.8595 291.368 51.2251L291.348 51.1977ZM300.337 92.2757C299.929 89.9643 299.517 87.6769 299.082 85.3861C298.95 84.7551 298.349 84.3273 297.694 84.4552C297.19 84.5554 296.814 84.9675 296.746 85.4479C296.729 85.568 296.712 85.688 296.763 85.8423C297.199 88.1331 297.611 90.4205 297.998 92.7045C298.102 93.3561 298.727 93.7874 299.358 93.6561C300.01 93.5522 300.441 92.9273 300.31 92.2963L300.337 92.2757ZM297.727 78.507C297.267 76.2128 296.78 73.9393 296.273 71.6383C296.141 71.0073 295.513 70.6 294.858 70.7279C294.354 70.8281 294.001 71.2437 293.933 71.7241C293.913 71.8681 293.896 71.9882 293.948 72.1425C294.435 74.4161 294.922 76.6897 295.385 78.9598C295.516 79.5908 296.141 80.0221 296.772 79.8908C297.403 79.7595 297.834 79.1346 297.703 78.5036L297.727 78.507ZM146.303 521.512C145.754 521.581 145.353 521.99 145.278 522.518C145.265 522.614 145.251 522.71 145.282 522.837C145.362 523.486 145.96 523.937 146.608 523.858C148.902 523.57 151.265 523.144 153.573 522.589C154.207 522.433 154.59 521.801 154.459 521.171C154.304 520.536 153.672 520.153 153.041 520.284C150.809 520.826 148.549 521.217 146.303 521.512ZM287.579 37.6571C286.913 35.4318 286.227 33.1791 285.538 30.9505C285.331 30.3333 284.672 29.9707 284.055 30.1774C283.62 30.3118 283.294 30.7068 283.233 31.1391C283.209 31.3072 283.234 31.4821 283.282 31.6604C283.971 33.8891 284.664 36.0937 285.329 38.319C285.512 38.9327 286.171 39.2954 286.785 39.1127C287.399 38.93 287.761 38.2708 287.579 37.6571ZM294.77 64.7628C294.235 62.4825 293.697 60.2261 293.114 57.939C292.959 57.3046 292.327 56.9214 291.692 57.0767C291.209 57.2043 290.884 57.5993 290.819 58.0556C290.799 58.1997 290.802 58.3472 290.854 58.5015C291.417 60.7612 291.955 63.0175 292.493 65.2738C292.649 65.9082 293.28 66.2915 293.911 66.1602C294.546 66.0049 294.929 65.3732 294.798 64.7422L294.77 64.7628ZM302.577 106.066C302.24 103.764 301.884 101.436 301.524 99.1311C301.42 98.4795 300.819 98.0516 300.167 98.1554C299.642 98.2283 299.262 98.6644 299.194 99.1448C299.177 99.2649 299.16 99.3849 299.195 99.4878C299.555 101.792 299.915 104.097 300.255 106.374C300.359 107.026 300.956 107.478 301.584 107.37C302.235 107.267 302.687 106.669 302.58 106.042L302.577 106.066ZM280.683 355.214C281.41 353.014 282.117 350.787 282.827 348.536C283.012 347.925 282.668 347.239 282.057 347.055C281.422 346.867 280.76 347.215 280.576 347.826C279.869 350.053 279.166 352.256 278.462 354.459C278.452 354.531 278.442 354.603 278.432 354.675C278.354 355.228 278.691 355.79 279.23 355.964C279.837 356.172 280.523 355.828 280.707 355.218L280.683 355.214ZM307.619 161.896C307.533 159.557 307.423 157.214 307.31 154.895C307.278 154.254 306.715 153.733 306.073 153.765C305.507 153.783 305.052 154.233 304.974 154.786C304.964 154.858 304.953 154.93 304.943 155.002C305.056 157.32 305.166 159.663 305.255 161.978C305.287 162.62 305.826 163.137 306.468 163.105C307.109 163.073 307.626 162.534 307.595 161.893L307.619 161.896ZM304.384 119.966C304.123 117.651 303.815 115.329 303.53 113.01C303.45 112.362 302.853 111.91 302.204 111.99C301.656 112.06 301.252 112.492 301.18 112.997C301.167 113.093 301.15 113.213 301.184 113.316C301.496 115.614 301.781 117.932 302.042 120.247C302.121 120.895 302.695 121.344 303.34 121.288C303.988 121.208 304.437 120.635 304.381 119.99L304.384 119.966ZM305.842 133.915C305.633 131.582 305.396 129.271 305.163 126.935C305.083 126.287 304.513 125.814 303.865 125.894C303.316 125.963 302.891 126.369 302.816 126.897C302.803 126.993 302.789 127.089 302.8 127.189C303.036 129.5 303.273 131.812 303.482 134.144C303.538 134.789 304.108 135.262 304.753 135.206C305.398 135.15 305.894 134.583 305.814 133.935L305.842 133.915ZM139.528 521.951C137.247 521.971 134.959 521.868 132.715 521.624C132.091 521.536 131.512 521.993 131.42 522.642L131.413 522.69C131.322 523.338 131.803 523.921 132.455 523.988C134.795 524.245 137.179 524.362 139.559 524.331C140.221 524.327 140.739 523.787 140.731 523.149C140.726 522.487 140.187 521.97 139.549 521.978L139.528 521.951ZM201.582 494.026C202.062 493.58 202.071 492.822 201.621 492.366C201.174 491.886 200.416 491.877 199.961 492.327C198.262 493.949 196.549 495.495 194.843 496.993C194.62 497.182 194.483 497.457 194.446 497.721C194.398 498.057 194.498 498.39 194.728 498.667C195.148 499.167 195.902 499.201 196.403 498.781C198.136 497.263 199.88 495.672 201.606 494.03L201.582 494.026ZM82.3007 488.874C80.9397 487.065 79.5888 485.184 78.2688 483.258C77.9044 482.716 77.1632 482.587 76.6218 482.951C76.3236 483.154 76.1594 483.45 76.1153 483.762C76.0745 484.05 76.1333 484.328 76.3155 484.598C77.6561 486.552 79.0242 488.484 80.4299 490.324C80.8217 490.845 81.5662 490.95 82.0871 490.559C82.6079 490.167 82.7131 489.422 82.3213 488.901L82.3007 488.874ZM190.969 503.256C191.49 502.864 191.571 502.116 191.155 501.592C190.76 501.095 190.015 500.99 189.491 501.405C187.668 502.863 185.804 504.265 183.957 505.547C183.683 505.753 183.522 506.024 183.478 506.337C183.437 506.625 183.493 506.927 183.678 507.173C184.043 507.715 184.787 507.82 185.329 507.456C187.207 506.129 189.098 504.706 190.972 503.232L190.969 503.256ZM211.385 483.947C211.82 483.47 211.778 482.729 211.3 482.294C210.823 481.859 210.082 481.902 209.623 482.376C208.054 484.114 206.469 485.8 204.866 487.435C204.691 487.631 204.585 487.861 204.551 488.101C204.5 488.462 204.617 488.846 204.899 489.106C205.373 489.565 206.11 489.547 206.569 489.073C208.176 487.413 209.789 485.706 211.361 483.944L211.385 483.947ZM74.4869 477.432C73.2903 475.499 72.1246 473.521 70.945 471.468C70.632 470.91 69.9011 470.708 69.3424 471.021C69.0203 471.221 68.8046 471.533 68.7571 471.869C68.7231 472.11 68.7578 472.384 68.8954 472.624C70.0716 474.701 71.282 476.709 72.4752 478.666C72.8121 479.228 73.5499 479.382 74.1119 479.045C74.674 478.708 74.8273 477.97 74.4869 477.432ZM91.2485 499.399C89.6888 497.782 88.1427 496.069 86.6342 494.263C86.2149 493.763 85.4636 493.706 84.9634 494.125C84.7407 494.314 84.6039 494.589 84.5666 494.853C84.5225 495.165 84.619 495.522 84.8286 495.772C86.3818 497.608 87.9726 499.352 89.5495 501.02C89.9962 501.5 90.7543 501.509 91.2098 501.059C91.6654 500.609 91.6986 499.854 91.2485 499.399ZM126.847 521.897C126.983 521.279 126.608 520.638 125.97 520.475C123.763 519.967 121.553 519.312 119.408 518.543C118.801 518.335 118.122 518.631 117.886 519.259C117.876 519.331 117.839 519.423 117.828 519.495C117.754 520.024 118.067 520.582 118.602 520.781C120.84 521.587 123.122 522.252 125.421 522.798C126.063 522.938 126.679 522.559 126.843 521.921L126.847 521.897ZM276.14 368.462C276.916 366.269 277.691 364.075 278.446 361.855C278.654 361.248 278.334 360.565 277.703 360.354C277.095 360.145 276.413 360.465 276.201 361.097C275.447 363.317 274.674 365.486 273.899 367.679C273.889 367.751 273.875 367.848 273.865 367.92C273.787 368.472 274.103 369.007 274.639 369.205C275.246 369.413 275.928 369.093 276.137 368.486L276.14 368.462ZM67.6156 465.388C66.5527 463.376 65.5206 461.319 64.4986 459.191C64.2131 458.611 63.513 458.365 62.9337 458.651C62.5669 458.82 62.3204 459.177 62.2695 459.537C62.2389 459.753 62.277 460.003 62.37 460.212C63.4125 462.369 64.4652 464.453 65.5247 466.489C65.8343 467.071 66.5378 467.293 67.1205 466.984C67.7032 466.674 67.9252 465.971 67.6156 465.388ZM173.347 514.924C175.387 513.84 177.44 512.661 179.455 511.402C180.017 511.065 180.17 510.327 179.833 509.765C179.496 509.203 178.759 509.05 178.197 509.387C176.209 510.625 174.207 511.787 172.223 512.83C171.88 513.002 171.661 513.338 171.61 513.698C171.576 513.938 171.614 514.189 171.728 514.425C172.037 515.008 172.744 515.206 173.323 514.92L173.347 514.924ZM101.717 510.261C102.107 509.752 102.017 509.005 101.484 508.611C99.6917 507.255 97.9161 505.78 96.1781 504.211C95.7006 503.776 94.9597 503.818 94.5248 504.296C94.3535 504.468 94.2715 504.701 94.241 504.917C94.1867 505.301 94.3279 505.689 94.6095 505.949C96.3922 507.548 98.2091 509.079 100.046 510.466C100.555 510.856 101.302 510.766 101.696 510.233L101.717 510.261ZM160.396 520.589C162.584 519.845 164.788 518.981 166.982 518.017C167.582 517.759 167.852 517.062 167.594 516.462C167.336 515.862 166.639 515.592 166.039 515.85C163.896 516.797 161.747 517.62 159.635 518.35C159.199 518.484 158.898 518.883 158.84 519.291C158.817 519.459 158.837 519.658 158.886 519.837C159.092 520.454 159.755 520.792 160.376 520.562L160.396 520.589ZM113.658 517.461C113.938 516.863 113.693 516.167 113.12 515.89C111.105 514.895 109.107 513.78 107.126 512.544C106.563 512.195 105.853 512.364 105.504 512.927C105.412 513.061 105.364 513.226 105.34 513.394C105.276 513.85 105.482 514.296 105.887 514.549C107.913 515.816 110 516.993 112.084 518.022C112.681 518.302 113.374 518.082 113.654 517.485L113.658 517.461ZM240.436 444.45C241.648 442.465 242.838 440.454 244.029 438.442C244.354 437.875 244.161 437.162 243.595 436.837C243.028 436.512 242.315 436.705 241.99 437.272C240.823 439.287 239.632 441.299 238.424 443.259C238.332 443.393 238.284 443.558 238.264 443.702C238.199 444.158 238.402 444.628 238.807 444.881C239.37 445.23 240.08 445.061 240.429 444.498L240.436 444.45ZM254.063 419.969C255.116 417.888 256.146 415.805 257.179 413.697C257.456 413.124 257.215 412.404 256.641 412.127C256.044 411.846 255.348 412.091 255.071 412.664C254.038 414.772 253.009 416.856 251.959 418.912C251.894 419.025 251.849 419.166 251.832 419.286C251.764 419.766 252.012 420.267 252.469 420.503C253.039 420.804 253.759 420.563 254.06 419.993L254.063 419.969ZM247.488 432.341C248.607 430.319 249.729 428.273 250.834 426.175C251.135 425.605 250.918 424.889 250.348 424.588C249.778 424.287 249.061 424.504 248.76 425.074C247.659 427.147 246.564 429.173 245.421 431.191C245.353 431.329 245.309 431.47 245.292 431.59C245.224 432.07 245.451 432.543 245.883 432.776C246.45 433.101 247.167 432.883 247.492 432.317L247.488 432.341ZM260.205 407.364C261.19 405.249 262.151 403.131 263.115 400.989C263.371 400.389 263.103 399.689 262.526 399.436C261.926 399.18 261.226 399.449 260.973 400.025C260.009 402.167 259.052 404.261 258.094 406.355C258.053 406.472 258.016 406.564 257.999 406.684C257.927 407.189 258.175 407.689 258.656 407.929C259.253 408.209 259.952 407.94 260.229 407.367L260.205 407.364ZM265.908 394.574C266.821 392.45 267.717 390.273 268.609 388.121C268.841 387.517 268.572 386.818 267.968 386.585C267.368 386.329 266.689 386.625 266.433 387.226C265.54 389.378 264.648 391.53 263.736 393.655C263.698 393.747 263.66 393.84 263.643 393.96C263.572 394.464 263.84 394.992 264.348 395.211C264.949 395.467 265.648 395.199 265.905 394.598L265.908 394.574ZM271.22 381.607C272.064 379.448 272.911 377.265 273.738 375.055C273.971 374.451 273.651 373.769 273.047 373.536C272.443 373.304 271.76 373.624 271.528 374.228C270.705 376.414 269.884 378.576 269.04 380.735C269.027 380.831 268.989 380.924 268.979 380.996C268.904 381.524 269.197 382.056 269.708 382.251C270.312 382.483 270.991 382.187 271.247 381.586L271.22 381.607ZM56.1762 440.082C55.3498 437.957 54.5303 435.783 53.7141 433.586C53.4833 432.965 52.8174 432.651 52.1968 432.881C51.782 433.043 51.4841 433.417 51.4264 433.826C51.3993 434.018 51.4201 434.217 51.4924 434.398C52.3052 436.62 53.1455 438.821 53.9718 440.947C54.206 441.543 54.8959 441.861 55.4958 441.603C56.0923 441.369 56.4104 440.679 56.1762 440.082ZM51.3855 427.01C50.638 424.846 49.9213 422.638 49.1839 420.403C48.9772 419.786 48.3147 419.447 47.6975 419.654C47.2621 419.788 46.9608 420.187 46.8997 420.619C46.8759 420.787 46.9002 420.962 46.9485 421.14C47.6824 423.4 48.4232 425.611 49.1707 427.775C49.3774 428.392 50.0434 428.706 50.6605 428.5C51.2777 428.293 51.5957 427.603 51.3855 427.01ZM61.5428 452.893C60.6102 450.826 59.6877 448.687 58.7687 446.524C58.5105 445.924 57.8172 445.63 57.2173 445.888C56.8264 446.054 56.556 446.407 56.4983 446.816C56.4711 447.008 56.4886 447.231 56.5815 447.44C57.4972 449.627 58.4436 451.77 59.3729 453.861C59.631 454.461 60.3312 454.706 60.9311 454.448C61.531 454.19 61.801 453.493 61.5188 452.89L61.5428 452.893ZM224.729 467.706C226.119 465.845 227.512 463.96 228.861 462.044C229.23 461.508 229.113 460.781 228.581 460.387C228.045 460.018 227.318 460.135 226.924 460.667C225.575 462.584 224.209 464.448 222.823 466.285C222.7 466.464 222.624 466.649 222.597 466.841C222.54 467.25 222.698 467.689 223.052 467.959C223.584 468.353 224.311 468.235 224.701 467.727L224.729 467.706ZM215.974 478.692C217.474 476.92 218.953 475.121 220.415 473.27C220.805 472.761 220.739 472.017 220.231 471.627C219.726 471.212 218.978 471.303 218.564 471.808C217.105 473.635 215.626 475.434 214.153 477.186C214.006 477.361 213.928 477.57 213.897 477.786C213.843 478.171 213.981 478.582 214.31 478.849C214.815 479.264 215.556 479.221 215.97 478.716L215.974 478.692ZM232.859 456.289C234.16 454.366 235.44 452.415 236.702 450.414C237.048 449.875 236.882 449.141 236.343 448.795C235.804 448.45 235.07 448.615 234.701 449.151C233.441 451.129 232.165 453.055 230.867 454.954C230.772 455.112 230.7 455.273 230.676 455.441C230.615 455.873 230.797 456.316 231.175 456.589C231.711 456.959 232.441 456.817 232.811 456.282L232.859 456.289Z" fill="#4165AA"/>
</svg>
