<svg width="234" height="543" viewBox="0 0 234 543" fill="none" xmlns="http://www.w3.org/2000/svg">
<path d="M200.834 369.381C202.921 363.526 206.468 356.729 207.753 357.159C209.018 357.617 207.508 365.131 205.424 371.011C205.232 371.552 205.059 372.067 204.863 372.584C205.263 373.336 206.125 374.929 207.217 376.931C207.213 376.907 207.206 376.858 207.203 376.834L207.765 375.261C207.837 375.079 208.067 374.973 208.3 375.063L209.822 375.607C210.055 375.696 210.182 375.899 210.113 376.105L209.552 377.678C209.552 377.678 209.448 377.815 209.356 377.853L208.708 379.684C209.635 381.39 210.634 383.258 211.626 385.077L212.167 383.531C212.239 383.349 212.469 383.243 212.703 383.333L214.225 383.877C214.458 383.966 214.585 384.169 214.516 384.375L213.954 385.948C213.954 385.948 213.851 386.085 213.758 386.123L213.128 387.902C215.625 392.571 217.722 396.488 217.722 396.66C217.725 397.027 216.826 399.334 216.826 399.334C216.633 399.876 216.424 400.297 216.348 400.283C216.297 400.266 216.452 399.632 216.648 399.114L210.187 391.184C210.001 391.602 209.798 391.901 209.692 391.842C209.562 391.787 209.617 391.314 209.786 390.775L209.779 390.727L208.53 389.165C208.364 389.556 208.158 389.83 208.031 389.799C207.901 389.744 207.957 389.27 208.126 388.732L206.968 387.303L205.933 386.568C205.734 387.061 205.514 387.411 205.383 387.356C205.253 387.301 205.309 386.828 205.477 386.289L205.474 386.265L203.404 384.794C203.229 385.284 202.985 385.637 202.854 385.582C202.724 385.527 202.78 385.054 202.949 384.515L201.043 383.168C199.614 387.094 198.998 388.626 197.964 391.54C196.934 394.478 195.73 397.221 194.584 399.514C195.949 402.065 198.693 407.091 198.693 407.091L198.244 408.771L191.74 404.521C191.417 405.008 191.149 405.364 190.939 405.615C190.419 406.79 190.058 407.527 189.928 407.472C189.801 407.441 189.96 406.659 190.305 405.459C190.305 405.116 190.337 404.646 190.42 404.022L182.614 403.215L183.319 401.621C183.319 401.621 188.993 399.3 191.557 398.203C192.099 395.799 192.813 393.052 193.603 390.148C194.878 386.514 195.408 384.895 196.552 381.549L194.227 381.388C194.034 381.93 193.748 382.337 193.618 382.282C193.488 382.227 193.55 381.802 193.678 381.319L191.129 381.14L191.133 381.164C190.916 381.709 190.655 382.113 190.524 382.058C190.394 382.003 190.456 381.578 190.608 381.091L189.346 381L187.538 381.378C187.345 381.92 187.059 382.328 186.929 382.273C186.826 382.238 186.827 381.895 186.937 381.463L184.961 381.865L184.967 381.913C184.751 382.458 184.489 382.862 184.335 382.811C184.232 382.776 184.229 382.409 184.364 381.974L174.344 384.052C174.148 384.569 173.89 385.169 173.838 385.152C173.787 385.135 173.87 384.682 174.083 384.113C174.083 384.113 174.828 381.754 175.082 381.473C175.189 381.36 179.28 379.63 184.157 377.569L184.788 375.79C184.788 375.79 184.74 375.625 184.75 375.525L185.312 373.952C185.384 373.77 185.614 373.664 185.847 373.754L187.37 374.298C187.603 374.387 187.729 374.59 187.66 374.796L187.12 376.342C189.038 375.532 190.981 374.718 192.786 373.973L193.434 372.142C193.434 372.142 193.386 371.977 193.397 371.878L193.958 370.304C194.03 370.123 194.26 370.017 194.493 370.106L196.016 370.65C196.249 370.74 196.375 370.942 196.307 371.148L195.745 372.722C195.745 372.722 195.7 372.753 195.68 372.78C197.763 371.922 199.404 371.225 200.214 370.89C200.386 370.376 200.583 369.858 200.775 369.316L200.834 369.381Z" fill="#4165AA"/>
<path d="M-68.2024 260.824C-67.5539 260.732 -67.1002 260.129 -67.1919 259.481C-67.5178 257.175 -67.8404 254.894 -68.1182 252.581C-68.2099 251.933 -68.7856 251.5 -69.4374 251.567C-70.0859 251.659 -70.5429 252.238 -70.4513 252.887C-70.1494 255.196 -69.8441 257.529 -69.5181 259.834C-69.4265 260.483 -68.8234 260.936 -68.175 260.845L-68.2024 260.824ZM-72.6983 231.966C-72.9041 229.643 -73.086 227.317 -73.2712 224.967C-73.3148 224.312 -72.8303 223.753 -72.1751 223.71C-71.5438 223.669 -70.9922 224.106 -70.9073 224.706C-70.9039 224.73 -70.9005 224.754 -70.8971 224.778C-70.7153 227.104 -70.5335 229.43 -70.3311 231.729C-70.2634 232.381 -70.7479 232.939 -71.3997 233.007C-72.0516 233.074 -72.634 232.593 -72.6777 231.938L-72.6983 231.966ZM-71.2883 245.925C-71.5422 243.61 -71.7995 241.27 -72.0293 238.951C-72.097 238.299 -71.6159 237.716 -70.9881 237.652C-70.3602 237.588 -69.7812 238.045 -69.6929 238.669L-69.6861 238.717C-69.4563 241.036 -69.2024 243.352 -68.9485 245.668C-68.8569 246.317 -69.3379 246.899 -69.9898 246.967C-70.6383 247.058 -71.1967 246.574 -71.2883 245.925ZM-73.7686 217.982C-73.9264 215.653 -74.0602 213.32 -74.17 210.984C-74.2136 210.329 -73.7051 209.767 -73.0465 209.747C-72.4393 209.71 -71.9116 210.15 -71.8268 210.751C-71.8234 210.775 -71.8166 210.823 -71.8132 210.847C-71.7034 213.183 -71.549 215.488 -71.4152 217.821C-71.3716 218.476 -71.8561 219.035 -72.5113 219.078C-73.1665 219.122 -73.725 218.637 -73.7686 217.982ZM-67.4151 273.672C-67.7891 271.373 -68.163 269.074 -68.5164 266.748C-68.6012 266.147 -68.1784 265.5 -67.5299 265.408C-66.8814 265.316 -66.2818 265.746 -66.1901 266.394C-65.8642 268.7 -65.4662 270.995 -65.0957 273.27L-65.0923 273.294C-65.004 273.919 -65.4337 274.518 -66.0787 274.634C-66.7272 274.726 -67.3268 274.296 -67.4425 273.651L-67.4151 273.672ZM-74.4993 203.975C-74.585 201.636 -74.6708 199.296 -74.7291 196.977C-74.7488 196.319 -74.2369 195.781 -73.5782 195.761C-72.9676 195.748 -72.464 196.192 -72.3825 196.768C-72.3757 196.816 -72.369 196.864 -72.3622 196.912C-72.3004 199.255 -72.2181 201.571 -72.1357 203.886C-72.1161 204.545 -72.628 205.083 -73.2626 205.099C-73.9212 205.118 -74.4557 204.63 -74.4753 203.972L-74.4993 203.975ZM-74.8629 189.966C-74.8973 187.643 -74.911 185.293 -74.9213 182.968C-74.9169 182.306 -74.4016 181.792 -73.7395 181.796C-73.153 181.787 -72.6494 182.23 -72.5679 182.806C-72.5611 182.854 -72.5543 182.903 -72.5441 182.975C-72.5338 185.3 -72.5235 187.626 -72.4892 189.948C-72.4695 190.607 -73.0055 191.148 -73.6435 191.14C-74.3021 191.16 -74.8399 190.648 -74.8355 189.986L-74.8629 189.966ZM-55.6095 328.419C-56.2202 326.178 -56.8104 323.91 -57.4005 321.641C-57.5608 321.027 -57.1893 320.362 -56.5511 320.199C-55.9128 320.035 -55.2719 320.41 -55.1082 321.048C-54.5181 323.316 -53.9314 325.56 -53.3446 327.805C-53.3379 327.853 -53.3311 327.901 -53.3243 327.949C-53.2428 328.525 -53.6038 329.091 -54.194 329.248C-54.8323 329.411 -55.4732 329.037 -55.6335 328.422L-55.6095 328.419ZM-64.9724 287.485C-65.4184 285.197 -65.8164 282.901 -66.2418 280.585C-66.3335 279.937 -65.9278 279.341 -65.2828 279.225C-64.6343 279.133 -64.038 279.539 -63.9224 280.184C-63.5244 282.479 -63.1024 284.771 -62.6598 287.036L-62.653 287.084C-62.5647 287.708 -62.9738 288.281 -63.5914 288.417C-64.2365 288.533 -64.8601 288.107 -64.9724 287.485ZM-51.7702 341.888C-52.429 339.654 -53.0878 337.42 -53.7259 335.159C-53.9136 334.524 -53.5388 333.883 -52.9039 333.695C-52.269 333.507 -51.6281 333.882 -51.4404 334.517C-50.8056 336.755 -50.1469 338.989 -49.4915 341.199C-49.4847 341.247 -49.4745 341.319 -49.4677 341.367C-49.3863 341.943 -49.7267 342.481 -50.2895 342.659C-50.9244 342.847 -51.5619 342.496 -51.7496 341.861L-51.7702 341.888ZM-59.0713 314.847C-59.6134 312.572 -60.1521 310.321 -60.6702 308.043C-60.779 307.446 -60.4316 306.784 -59.7934 306.62C-59.1517 306.481 -58.5314 306.883 -58.3711 307.497C-57.853 309.775 -57.3143 312.027 -56.7757 314.278C-56.7689 314.326 -56.7655 314.35 -56.7587 314.398C-56.6738 314.998 -57.0588 315.567 -57.6525 315.7C-58.2907 315.864 -58.935 315.465 -59.0747 314.823L-59.0713 314.847ZM-62.2003 301.204C-62.6944 298.922 -63.1644 296.637 -63.6344 294.351L-63.6446 294.279C-63.7329 293.655 -63.3238 293.083 -62.7062 292.946C-62.0645 292.807 -61.4408 293.233 -61.3251 293.878C-60.8551 296.163 -60.3885 298.424 -59.8944 300.706L-59.8809 300.802C-59.796 301.403 -60.1776 301.996 -60.7987 302.108C-61.4403 302.248 -62.0606 301.845 -62.2003 301.204ZM-73.8477 147.932C-73.7105 145.61 -73.5253 143.281 -73.3675 140.932C-73.3116 140.287 -72.7449 139.791 -72.1001 139.846C-71.5307 139.888 -71.1026 140.318 -71.0279 140.846C-71.0177 140.918 -71.0041 141.014 -71.0179 141.09C-71.2032 143.419 -71.3644 145.744 -71.5049 148.042C-71.5368 148.684 -72.1035 149.18 -72.7689 149.152C-73.4137 149.096 -73.9069 148.553 -73.8785 147.888L-73.8477 147.932ZM-74.8835 175.956C-74.8458 173.624 -74.8081 171.291 -74.7464 168.955C-74.742 168.293 -74.1993 167.8 -73.5372 167.804C-72.9472 167.819 -72.4676 168.266 -72.3896 168.818C-72.3794 168.89 -72.3726 168.938 -72.3624 169.01C-72.4241 171.346 -72.4653 173.655 -72.479 175.984C-72.4834 176.646 -73.0227 177.163 -73.6607 177.155C-74.3227 177.151 -74.8399 176.611 -74.8321 175.973L-74.8835 175.956ZM-58.273 51.1977C-57.6865 48.9346 -57.0486 46.6887 -56.4348 44.4462C-56.2554 43.8084 -55.5963 43.4458 -54.9825 43.6285C-54.5231 43.7595 -54.1978 44.1545 -54.1333 44.6108C-54.1095 44.7789 -54.1132 44.9264 -54.1614 45.1047C-54.7993 47.3506 -55.4132 49.5931 -56.0031 51.8322C-56.1584 52.4666 -56.8175 52.8292 -57.4519 52.6739C-58.0863 52.5186 -58.4489 51.8595 -58.2936 51.2251L-58.273 51.1977ZM-67.2622 92.2757C-66.8541 89.9643 -66.4425 87.6769 -66.0069 85.3861C-65.8757 84.7551 -65.2747 84.3273 -64.6197 84.4552C-64.1156 84.5554 -63.7389 84.9675 -63.671 85.4479C-63.654 85.568 -63.6371 85.688 -63.6887 85.8423C-64.1243 88.1331 -64.5359 90.4205 -64.9234 92.7045C-65.0273 93.3561 -65.6522 93.7874 -66.2832 93.6561C-66.9348 93.5522 -67.3661 92.9273 -67.2348 92.2963L-67.2622 92.2757ZM-64.6522 78.507C-64.1926 76.2128 -63.7056 73.9393 -63.198 71.6383C-63.0667 71.0073 -62.4384 70.6 -61.7834 70.7279C-61.2793 70.8281 -60.9265 71.2437 -60.8586 71.7241C-60.8383 71.8681 -60.8213 71.9882 -60.873 72.1425C-61.36 74.4161 -61.847 76.6897 -62.31 78.9598C-62.4412 79.5908 -63.0662 80.0221 -63.6972 79.8908C-64.3281 79.7595 -64.7594 79.1346 -64.6282 78.5036L-64.6522 78.507ZM86.7722 521.512C87.3209 521.581 87.7217 521.99 87.7964 522.518C87.8099 522.614 87.8235 522.71 87.7925 522.837C87.7126 523.486 87.1151 523.937 86.4669 523.858C84.1724 523.57 81.8096 523.144 79.5019 522.589C78.8675 522.433 78.4842 521.801 78.6155 521.171C78.7708 520.536 79.4025 520.153 80.0335 520.284C82.2658 520.826 84.5258 521.217 86.7722 521.512ZM-54.5038 37.6571C-53.8385 35.4318 -53.1526 33.1791 -52.4633 30.9505C-52.2566 30.3333 -51.5974 29.9707 -50.9803 30.1774C-50.5448 30.3118 -50.2195 30.7068 -50.1584 31.1391C-50.1347 31.3072 -50.1589 31.4821 -50.2072 31.6604C-50.8965 33.8891 -51.5892 36.0937 -52.2546 38.319C-52.4373 38.9327 -53.0964 39.2954 -53.7102 39.1127C-54.3239 38.93 -54.6865 38.2708 -54.5038 37.6571ZM-61.6957 64.7628C-61.1607 62.4825 -60.6222 60.2261 -60.0392 57.939C-59.8839 57.3046 -59.2522 56.9214 -58.6178 57.0767C-58.1343 57.2043 -57.809 57.5993 -57.7445 58.0556C-57.7241 58.1997 -57.7278 58.3472 -57.7795 58.5015C-58.3419 60.7612 -58.8803 63.0175 -59.4188 65.2738C-59.5741 65.9082 -60.2058 66.2915 -60.8368 66.1602C-61.4711 66.0049 -61.8544 65.3732 -61.7231 64.7422L-61.6957 64.7628ZM-69.5018 106.066C-69.1657 103.764 -68.809 101.436 -68.4489 99.1311C-68.345 98.4795 -67.7441 98.0516 -67.0925 98.1554C-66.5678 98.2283 -66.1876 98.6644 -66.1197 99.1448C-66.1028 99.2649 -66.0858 99.3849 -66.1202 99.4878C-66.4804 101.792 -66.8405 104.097 -67.18 106.374C-67.2839 107.026 -67.8814 107.478 -68.509 107.37C-69.1606 107.267 -69.6125 106.669 -69.5052 106.042L-69.5018 106.066ZM-47.6083 355.214C-48.3357 353.014 -49.0425 350.787 -49.7527 348.536C-49.937 347.925 -49.593 347.239 -48.9821 347.055C-48.3473 346.867 -47.6857 347.215 -47.5014 347.826C-46.7946 350.053 -46.0912 352.256 -45.3878 354.459C-45.3776 354.531 -45.3674 354.603 -45.3572 354.675C-45.2791 355.228 -45.6161 355.79 -46.1549 355.964C-46.7624 356.172 -47.448 355.828 -47.6323 355.218L-47.6083 355.214ZM-74.5439 161.896C-74.4581 159.557 -74.3484 157.214 -74.2352 154.895C-74.2034 154.254 -73.6401 153.733 -72.9986 153.765C-72.4327 153.783 -71.9771 154.233 -71.899 154.786C-71.8888 154.858 -71.8787 154.93 -71.8685 155.002C-71.9816 157.32 -72.0914 159.663 -72.1806 161.978C-72.2124 162.62 -72.7517 163.137 -73.3931 163.105C-74.0345 163.073 -74.5517 162.534 -74.5199 161.893L-74.5439 161.896ZM-71.3094 119.966C-71.0487 117.651 -70.74 115.329 -70.4554 113.01C-70.3755 112.362 -69.778 111.91 -69.1298 111.99C-68.581 112.06 -68.1769 112.492 -68.1056 112.997C-68.092 113.093 -68.075 113.213 -68.1095 113.316C-68.4216 115.614 -68.7063 117.932 -68.9669 120.247C-69.0468 120.895 -69.6203 121.344 -70.2651 121.288C-70.9133 121.208 -71.3618 120.635 -71.306 119.99L-71.3094 119.966ZM-72.7672 133.915C-72.5579 131.582 -72.3213 129.271 -72.088 126.935C-72.0082 126.287 -71.438 125.814 -70.7898 125.894C-70.2411 125.963 -69.8163 126.369 -69.7416 126.897C-69.7281 126.993 -69.7145 127.089 -69.7249 127.189C-69.9616 129.5 -70.1982 131.812 -70.4075 134.144C-70.4633 134.789 -71.0334 135.262 -71.6782 135.206C-72.323 135.15 -72.8196 134.583 -72.7397 133.935L-72.7672 133.915ZM93.5463 521.951C95.8274 521.971 98.1156 521.868 100.359 521.624C100.984 521.536 101.563 521.993 101.654 522.642L101.661 522.69C101.753 523.338 101.272 523.921 100.62 523.988C98.2802 524.245 95.8959 524.362 93.5154 524.331C92.8533 524.327 92.3362 523.787 92.344 523.149C92.3484 522.487 92.8877 521.97 93.5257 521.978L93.5463 521.951ZM31.4925 494.026C31.013 493.58 31.0038 492.822 31.4538 492.366C31.9004 491.886 32.6585 491.877 33.1141 492.327C34.8131 493.949 36.526 495.495 38.2321 496.993C38.4548 497.182 38.5916 497.457 38.6289 497.721C38.6765 498.057 38.5765 498.39 38.3463 498.667C37.927 499.167 37.1723 499.201 36.6721 498.781C34.9386 497.263 33.195 495.672 31.4685 494.03L31.4925 494.026ZM150.774 488.874C152.135 487.065 153.486 485.184 154.806 483.258C155.17 482.716 155.911 482.587 156.453 482.951C156.751 483.154 156.915 483.45 156.959 483.762C157 484.05 156.941 484.328 156.759 484.598C155.419 486.552 154.05 488.484 152.645 490.324C152.253 490.845 151.508 490.95 150.988 490.559C150.467 490.167 150.362 489.422 150.753 488.901L150.774 488.874ZM42.106 503.256C41.5851 502.864 41.5039 502.116 41.9197 501.592C42.315 501.095 43.0595 500.99 43.5837 501.405C45.4065 502.863 47.2705 504.265 49.1175 505.547C49.3916 505.753 49.5525 506.024 49.5966 506.337C49.6373 506.625 49.582 506.927 49.3964 507.173C49.032 507.715 48.2875 507.82 47.746 507.456C45.8682 506.129 43.9768 504.706 42.1026 503.232L42.106 503.256ZM21.6899 483.947C21.2549 483.47 21.2972 482.729 21.7746 482.294C22.2521 481.859 22.993 481.902 23.4519 482.376C25.0204 484.114 26.6062 485.8 28.2091 487.435C28.3838 487.631 28.4898 487.861 28.5237 488.101C28.5747 488.462 28.4575 488.846 28.1758 489.106C27.7018 489.565 26.9643 489.547 26.5053 489.073C24.899 487.413 23.2858 485.706 21.7139 483.944L21.6899 483.947ZM158.588 477.432C159.784 475.499 160.95 473.521 162.13 471.468C162.443 470.91 163.174 470.708 163.732 471.021C164.054 471.221 164.27 471.533 164.318 471.869C164.352 472.11 164.317 472.384 164.179 472.624C163.003 474.701 161.793 476.709 160.6 478.666C160.263 479.228 159.525 479.382 158.963 479.045C158.401 478.708 158.247 477.97 158.588 477.432ZM141.826 499.399C143.386 497.782 144.932 496.069 146.441 494.263C146.86 493.763 147.611 493.706 148.111 494.125C148.334 494.314 148.471 494.589 148.508 494.853C148.552 495.165 148.456 495.522 148.246 495.772C146.693 497.608 145.102 499.352 143.525 501.02C143.079 501.5 142.32 501.509 141.865 501.059C141.409 500.609 141.376 499.854 141.826 499.399ZM106.228 521.897C106.092 521.279 106.467 520.638 107.105 520.475C109.311 519.967 111.521 519.312 113.666 518.543C114.274 518.335 114.953 518.631 115.188 519.259C115.199 519.331 115.236 519.423 115.246 519.495C115.321 520.024 115.008 520.582 114.473 520.781C112.235 521.587 109.953 522.252 107.654 522.798C107.012 522.938 106.395 522.559 106.231 521.921L106.228 521.897ZM-43.0654 368.462C-43.8409 366.269 -44.6164 364.075 -45.3712 361.855C-45.5795 361.248 -45.2595 360.565 -44.628 360.354C-44.0206 360.145 -43.3384 360.465 -43.1267 361.097C-42.3718 363.317 -41.5998 365.486 -40.8243 367.679C-40.8141 367.751 -40.8006 367.848 -40.7904 367.92C-40.7123 368.472 -41.0287 369.007 -41.5641 369.205C-42.1715 369.413 -42.8537 369.093 -43.0621 368.486L-43.0654 368.462ZM165.459 465.388C166.522 463.376 167.554 461.319 168.576 459.191C168.862 458.611 169.562 458.365 170.141 458.651C170.508 458.82 170.754 459.177 170.805 459.537C170.836 459.753 170.798 460.003 170.705 460.212C169.662 462.369 168.609 464.453 167.55 466.489C167.24 467.071 166.537 467.293 165.954 466.984C165.372 466.674 165.15 465.971 165.459 465.388ZM59.7273 514.924C57.6879 513.84 55.6349 512.661 53.6197 511.402C53.0577 511.065 52.9044 510.327 53.2414 509.765C53.5784 509.203 54.3161 509.05 54.8782 509.387C56.8659 510.625 58.8675 511.787 60.8521 512.83C61.1949 513.002 61.4139 513.338 61.4648 513.698C61.4988 513.938 61.4607 514.189 61.3471 514.425C61.0375 515.008 60.3306 515.206 59.7513 514.92L59.7273 514.924ZM131.358 510.261C130.968 509.752 131.058 509.005 131.59 508.611C133.383 507.255 135.159 505.78 136.897 504.211C137.374 503.776 138.115 503.818 138.55 504.296C138.721 504.468 138.803 504.701 138.834 504.917C138.888 505.301 138.747 505.689 138.465 505.949C136.683 507.548 134.866 509.079 133.028 510.466C132.52 510.856 131.772 510.766 131.379 510.233L131.358 510.261ZM72.6786 520.589C70.4911 519.845 68.2867 518.981 66.0928 518.017C65.4929 517.759 65.2229 517.062 65.4811 516.462C65.7392 515.862 66.4359 515.592 67.0359 515.85C69.1784 516.797 71.328 517.62 73.4399 518.35C73.8754 518.484 74.1767 518.883 74.2344 519.291C74.2581 519.459 74.2373 519.658 74.189 519.837C73.9823 520.454 73.3197 520.792 72.6992 520.562L72.6786 520.589ZM119.417 517.461C119.137 516.863 119.381 516.167 119.955 515.89C121.97 514.895 123.968 513.78 125.949 512.544C126.512 512.195 127.222 512.364 127.571 512.927C127.663 513.061 127.711 513.226 127.735 513.394C127.799 513.85 127.593 514.296 127.188 514.549C125.162 515.816 123.075 516.993 120.991 518.022C120.394 518.302 119.701 518.082 119.421 517.485L119.417 517.461ZM-7.36145 444.45C-8.57286 442.465 -9.76365 440.454 -10.9544 438.442C-11.2795 437.875 -11.0863 437.162 -10.5199 436.837C-9.95339 436.512 -9.24017 436.705 -8.91512 437.272C-7.74836 439.287 -6.55758 441.299 -5.34957 443.259C-5.25715 443.393 -5.20936 443.558 -5.18899 443.702C-5.12449 444.158 -5.32757 444.628 -5.73271 444.881C-6.29579 445.23 -7.0056 445.061 -7.35466 444.498L-7.36145 444.45ZM-20.9883 419.969C-22.0418 417.888 -23.0712 415.805 -24.1041 413.697C-24.3811 413.124 -24.1399 412.404 -23.5667 412.127C-22.9694 411.846 -22.2734 412.091 -21.9964 412.664C-20.9635 414.772 -19.9341 416.856 -18.884 418.912C-18.819 419.025 -18.7746 419.166 -18.7576 419.286C-18.6897 419.766 -18.9374 420.267 -19.394 420.503C-19.9639 420.804 -20.6839 420.563 -20.9849 419.993L-20.9883 419.969ZM-14.4135 432.341C-15.5322 430.319 -16.6543 428.273 -17.7592 426.175C-18.0603 425.605 -17.8431 424.889 -17.2732 424.588C-16.7034 424.287 -15.9868 424.504 -15.6857 425.074C-14.5842 427.147 -13.4895 429.173 -12.3468 431.191C-12.2784 431.329 -12.234 431.47 -12.217 431.59C-12.1491 432.07 -12.3762 432.543 -12.8087 432.776C-13.3752 433.101 -14.0918 432.883 -14.4169 432.317L-14.4135 432.341ZM-27.1306 407.364C-28.1154 405.249 -29.0762 403.131 -30.0404 400.989C-30.2968 400.389 -30.0282 399.689 -29.4515 399.436C-28.8509 399.18 -28.1515 399.449 -27.8985 400.025C-26.9343 402.167 -25.9769 404.261 -25.0195 406.355C-24.9785 406.472 -24.9409 406.564 -24.9239 406.684C-24.8526 407.189 -25.1003 407.689 -25.5809 407.929C-26.1782 408.209 -26.8776 407.94 -27.1546 407.367L-27.1306 407.364ZM-32.8335 394.574C-33.7463 392.45 -34.6418 390.273 -35.534 388.121C-35.7663 387.517 -35.4977 386.818 -34.8937 386.585C-34.293 386.329 -33.6143 386.625 -33.3579 387.226C-32.4657 389.378 -31.5736 391.53 -30.6608 393.655C-30.6232 393.747 -30.5856 393.84 -30.5686 393.96C-30.4973 394.464 -30.7657 394.992 -31.2737 395.211C-31.8744 395.467 -32.5737 395.199 -32.8301 394.598L-32.8335 394.574ZM-38.1451 381.607C-38.9892 379.448 -39.8367 377.265 -40.6636 375.055C-40.896 374.451 -40.576 373.769 -39.9719 373.536C-39.3679 373.304 -38.6857 373.624 -38.4533 374.228C-37.6298 376.414 -36.8097 378.576 -35.9656 380.735C-35.9521 380.831 -35.9145 380.924 -35.9043 380.996C-35.8296 381.524 -36.1219 382.056 -36.6333 382.251C-37.2374 382.483 -37.9162 382.187 -38.1725 381.586L-38.1451 381.607ZM176.898 440.082C177.725 437.957 178.544 435.783 179.361 433.586C179.591 432.965 180.257 432.651 180.878 432.881C181.293 433.043 181.591 433.417 181.648 433.826C181.675 434.018 181.655 434.217 181.582 434.398C180.769 436.62 179.929 438.821 179.103 440.947C178.869 441.543 178.179 441.861 177.579 441.603C176.982 441.369 176.664 440.679 176.898 440.082ZM181.689 427.01C182.437 424.846 183.153 422.638 183.891 420.403C184.098 419.786 184.76 419.447 185.377 419.654C185.813 419.788 186.114 420.187 186.175 420.619C186.199 420.787 186.175 420.962 186.126 421.14C185.392 423.4 184.652 425.611 183.904 427.775C183.697 428.392 183.031 428.706 182.414 428.5C181.797 428.293 181.479 427.603 181.689 427.01ZM171.532 452.893C172.465 450.826 173.387 448.687 174.306 446.524C174.564 445.924 175.258 445.63 175.857 445.888C176.248 446.054 176.519 446.407 176.576 446.816C176.604 447.008 176.586 447.231 176.493 447.44C175.578 449.627 174.631 451.77 173.702 453.861C173.444 454.461 172.744 454.706 172.144 454.448C171.544 454.19 171.274 453.493 171.556 452.89L171.532 452.893ZM8.34594 467.706C6.95598 465.845 5.56263 463.96 4.21391 462.044C3.84423 461.508 3.96192 460.781 4.49419 460.387C5.02986 460.018 5.7569 460.135 6.1506 460.667C7.49932 462.584 8.86526 464.448 10.2518 466.285C10.3751 466.464 10.4503 466.649 10.4774 466.841C10.5351 467.25 10.3767 467.689 10.023 467.959C9.4907 468.353 8.76366 468.235 8.37335 467.727L8.34594 467.706ZM17.101 478.692C15.6012 476.92 14.1219 475.121 12.6599 473.27C12.2696 472.761 12.3359 472.017 12.8441 471.627C13.349 471.212 14.0967 471.303 14.511 471.808C15.9696 473.635 17.4488 475.434 18.9213 477.186C19.0685 477.361 19.1471 477.57 19.1777 477.786C19.232 478.171 19.0942 478.582 18.7645 478.849C18.2596 479.264 17.5187 479.221 17.1044 478.716L17.101 478.692ZM0.215792 456.289C-1.08489 454.366 -2.36494 452.415 -3.62778 450.414C-3.97345 449.875 -3.80771 449.141 -3.26866 448.795C-2.72959 448.45 -1.99576 448.615 -1.62608 449.151C-0.36664 451.129 0.910021 453.055 2.20731 454.954C2.30313 455.112 2.37492 455.273 2.39869 455.441C2.4598 455.873 2.27734 456.316 1.89961 456.589C1.36395 456.959 0.633513 456.817 0.263826 456.282L0.215792 456.289Z" fill="#4165AA"/>
</svg>
