<svg width="18" height="14" viewBox="0 0 18 14" fill="none" xmlns="http://www.w3.org/2000/svg">
<path d="M2.23133 13.4166C1.80906 13.4166 1.45675 13.2755 1.17442 12.9931C0.892083 12.7108 0.750611 12.3582 0.75 11.9353V2.06465C0.75 1.64237 0.891472 1.29006 1.17442 1.00773C1.45736 0.725396 1.80936 0.583924 2.23042 0.583313H15.7696C16.1913 0.583313 16.5433 0.724785 16.8256 1.00773C17.1079 1.29067 17.2494 1.64298 17.25 2.06465V11.9362C17.25 12.3579 17.1085 12.7102 16.8256 12.9931C16.5426 13.2761 16.1906 13.4173 15.7696 13.4166H2.23133ZM9 7.10631L16.3333 2.31123L16.051 1.49998L9 6.08331L1.949 1.49998L1.66667 2.31123L9 7.10631Z" fill="#367BF3"/>
</svg>
