<svg width="12" height="9" viewBox="0 0 12 9" fill="none" xmlns="http://www.w3.org/2000/svg">
<path d="M10.1786 0.399414H1.82145C1.45216 0.39978 1.09811 0.535729 0.836984 0.777432C0.575858 1.01914 0.428984 1.34685 0.428589 1.68867V7.21405C0.428984 7.55587 0.575858 7.88359 0.836984 8.12529C1.09811 8.36699 1.45216 8.50294 1.82145 8.50331H10.1786C10.5479 8.50294 10.9019 8.36699 11.1631 8.12529C11.4242 7.88359 11.5711 7.55587 11.5714 7.21405V1.68867C11.5711 1.34685 11.4242 1.01914 11.1631 0.777432C10.9019 0.535729 10.5479 0.39978 10.1786 0.399414ZM9.8259 2.53198L6.24427 5.11049C6.17442 5.16075 6.08848 5.18803 6.00002 5.18803C5.91155 5.18803 5.82561 5.16075 5.75577 5.11049L2.17414 2.53198C2.13206 2.50257 2.09671 2.4657 2.07015 2.42354C2.0436 2.38137 2.02636 2.33473 2.01944 2.28635C2.01253 2.23796 2.01607 2.18878 2.02986 2.14167C2.04365 2.09456 2.06743 2.05046 2.09979 2.01192C2.13216 1.97339 2.17248 1.9412 2.21841 1.91721C2.26433 1.89323 2.31495 1.87793 2.36732 1.87221C2.41969 1.86649 2.47276 1.87046 2.52346 1.88388C2.57415 1.89731 2.62146 1.91994 2.66263 1.95044L6.00002 4.35306L9.3374 1.95044C9.42086 1.8921 9.52576 1.86652 9.62943 1.87921C9.7331 1.89191 9.82721 1.94187 9.8914 2.01829C9.95559 2.0947 9.9847 2.19144 9.97245 2.28757C9.96019 2.3837 9.90754 2.4715 9.8259 2.53198Z" fill="black"/>
</svg>
