<svg width="17" height="17" viewBox="0 0 17 17" fill="none" xmlns="http://www.w3.org/2000/svg">
<mask id="mask0_15_233" style="mask-type:luminance" maskUnits="userSpaceOnUse" x="0" y="0" width="17" height="16">
<path d="M16.0294 0.53064H0.970581V15.5895H16.0294V0.53064Z" fill="white"/>
</mask>
<g mask="url(#mask0_15_233)">
<path d="M8.40441 4.43688C8.40441 6.38612 6.82423 7.96629 4.87499 7.96629H1.34558V4.43688C1.34558 2.48764 2.92575 0.907471 4.87499 0.907471C6.82423 0.907471 8.40441 2.48764 8.40441 4.43688Z" fill="#367BF3"/>
<path d="M8.40442 11.4957C8.40442 9.54648 9.98462 7.96631 11.9338 7.96631H15.4632V11.4957C15.4632 13.445 13.8831 15.0251 11.9338 15.0251C9.98462 15.0251 8.40442 13.445 8.40442 11.4957Z" fill="#367BF3"/>
<path d="M1.34558 11.4957C1.34558 13.445 2.92575 15.0251 4.87499 15.0251H8.40441V11.4957C8.40441 9.54648 6.82423 7.96631 4.87499 7.96631C2.92575 7.96631 1.34558 9.54648 1.34558 11.4957Z" fill="#367BF3"/>
<path d="M15.4632 4.43688C15.4632 2.48764 13.8831 0.907471 11.9338 0.907471H8.40442V4.43688C8.40442 6.38612 9.98462 7.96629 11.9338 7.96629C13.8831 7.96629 15.4632 6.38612 15.4632 4.43688Z" fill="#367BF3"/>
</g>
</svg>
