<svg width="28" height="19" viewBox="0 0 28 19" fill="none" xmlns="http://www.w3.org/2000/svg">
<path d="M14.007 0.371096C10.892 0.371096 7.77933 1.28576 5.08783 3.11626H0L2.29017 5.6071C1.24671 6.55779 0.51522 7.80187 0.1918 9.17592C-0.131619 10.55 -0.0318436 11.9897 0.478019 13.306C0.987883 14.6223 1.88399 15.7536 3.04861 16.5513C4.21323 17.349 5.5919 17.7757 7.0035 17.7754C8.7672 17.7765 10.4659 17.1095 11.7577 15.9088L14 18.3494L16.2423 15.9111C17.533 17.1112 19.2306 17.7774 20.993 17.7754C22.8491 17.7754 24.6292 17.0383 25.9419 15.726C27.2546 14.4138 27.9924 12.6339 27.993 10.7778C27.9942 9.8043 27.7917 8.84136 27.3985 7.95085C27.0053 7.06035 26.4301 6.26198 25.7098 5.6071L28 3.11626H22.925C20.2956 1.32607 17.1879 0.369456 14.007 0.371096ZM14 2.65776C15.7862 2.65776 17.5735 3.01126 19.2547 3.71126C16.2668 4.8546 14 7.5286 14 10.6436C14 7.52743 11.7343 4.8546 8.74533 3.71126C10.4101 3.01672 12.1961 2.65789 14 2.65776ZM7.00233 6.04343C7.62421 6.04343 8.23999 6.16592 8.81453 6.4039C9.38907 6.64188 9.91111 6.99069 10.3508 7.43043C10.7906 7.87016 11.1394 8.39219 11.3774 8.96673C11.6153 9.54127 11.7378 10.1571 11.7378 10.7789C11.7378 11.4008 11.6153 12.0166 11.3774 12.5911C11.1394 13.1657 10.7906 13.6877 10.3508 14.1274C9.91111 14.5672 9.38907 14.916 8.81453 15.154C8.23999 15.3919 7.62421 15.5144 7.00233 15.5144C5.7464 15.5144 4.54191 15.0155 3.65383 14.1274C2.76575 13.2394 2.26683 12.0349 2.26683 10.7789C2.26683 9.523 2.76575 8.3185 3.65383 7.43043C4.54191 6.54235 5.7464 6.04343 7.00233 6.04343ZM20.993 6.04576C21.6146 6.04553 22.2302 6.16775 22.8047 6.40543C23.3791 6.64311 23.901 6.9916 24.3408 7.43101C24.7805 7.87041 25.1294 8.39213 25.3675 8.96637C25.6056 9.54061 25.7283 10.1561 25.7285 10.7778C25.7287 11.3994 25.6065 12.015 25.3688 12.5894C25.1312 13.1638 24.7827 13.6858 24.3433 14.1255C23.9038 14.5653 23.3821 14.9142 22.8079 15.1523C22.2337 15.3904 21.6181 15.513 20.9965 15.5133C19.741 15.5137 18.5368 15.0154 17.6487 14.128C16.7606 13.2406 16.2615 12.0367 16.261 10.7813C16.2605 9.52579 16.7588 8.32156 17.6462 7.43348C18.5337 6.5454 19.7375 6.04623 20.993 6.04576ZM7.00233 8.29743C6.34389 8.29743 5.71241 8.55899 5.24682 9.02458C4.78123 9.49018 4.51967 10.1217 4.51967 10.7801C4.51967 11.4385 4.78123 12.07 5.24682 12.5356C5.71241 13.0012 6.34389 13.2628 7.00233 13.2628C7.66078 13.2628 8.29225 13.0012 8.75784 12.5356C9.22343 12.07 9.485 11.4385 9.485 10.7801C9.485 10.1217 9.22343 9.49018 8.75784 9.02458C8.29225 8.55899 7.66078 8.29743 7.00233 8.29743ZM20.993 8.29743C20.3346 8.29743 19.7031 8.55899 19.2375 9.02458C18.7719 9.49018 18.5103 10.1217 18.5103 10.7801C18.5103 11.4385 18.7719 12.07 19.2375 12.5356C19.7031 13.0012 20.3346 13.2628 20.993 13.2628C21.6514 13.2628 22.2829 13.0012 22.7485 12.5356C23.2141 12.07 23.4757 11.4385 23.4757 10.7801C23.4757 10.1217 23.2141 9.49018 22.7485 9.02458C22.2829 8.55899 21.6514 8.29743 20.993 8.29743Z" fill="#4CAF50"/>
</svg>
