<svg width="12" height="13" viewBox="0 0 12 13" fill="none" xmlns="http://www.w3.org/2000/svg">
<path d="M11.5454 9.43993C11.4155 9.29436 10.9571 8.86393 10.1144 8.29447C9.26549 7.72004 8.63943 7.36187 8.45985 7.27835C8.44402 7.27096 8.42658 7.26825 8.4094 7.27051C8.39222 7.27277 8.37596 7.27991 8.36235 7.29118C8.07307 7.52865 7.58606 7.96484 7.55994 7.9884C7.3913 8.14052 7.3913 8.14052 7.25325 8.09313C7.01049 8.00935 6.25634 7.58782 5.59919 6.89452C4.94205 6.20122 4.52094 5.38774 4.44135 5.13247C4.39583 4.9869 4.39583 4.9869 4.54084 4.80938C4.56323 4.78189 4.97786 4.26925 5.20346 3.96501C5.21416 3.95068 5.22095 3.93356 5.2231 3.91548C5.22524 3.89739 5.22267 3.87904 5.21565 3.86238C5.1363 3.67308 4.79604 3.01434 4.25032 2.12075C3.70859 1.23396 3.30017 0.75143 3.16188 0.61476C3.14919 0.602154 3.1335 0.593385 3.11647 0.589376C3.09944 0.585367 3.0817 0.586267 3.06512 0.591981C2.5817 0.766847 2.11528 0.989974 1.67223 1.25831C1.24451 1.52004 0.839583 1.82099 0.462149 2.15767C0.448974 2.16946 0.439096 2.1848 0.433575 2.20205C0.428053 2.2193 0.427097 2.23781 0.430809 2.25559C0.482794 2.5106 0.731276 3.57516 1.50234 5.04973C2.28908 6.55468 2.8343 7.32574 3.98965 8.5377C5.14501 9.74967 5.90065 10.3581 7.33185 11.1863C8.73271 11.9979 9.74454 12.2597 9.98631 12.3139C10.0032 12.3178 10.0208 12.3168 10.0373 12.311C10.0537 12.3052 10.0683 12.2948 10.0796 12.2809C10.3994 11.8837 10.6852 11.4574 10.9337 11.0072C11.1886 10.5408 11.4006 10.0498 11.5667 9.541C11.5721 9.52367 11.5729 9.50517 11.5691 9.4874C11.5654 9.46963 11.5572 9.45324 11.5454 9.43993Z" fill="black"/>
</svg>
