<svg width="16" height="17" viewBox="0 0 16 17" fill="none" xmlns="http://www.w3.org/2000/svg">
<path d="M14.75 6.49658C15.3477 6.49658 15.875 7.02393 15.875 7.62158V8.74658C15.875 9.37939 15.3477 9.87158 14.75 9.87158H9.6875V14.9341C9.6875 15.5669 9.16016 16.0591 8.5625 16.0591H7.4375C6.80469 16.0591 6.3125 15.5669 6.3125 14.9341V9.87158H1.25C0.617188 9.87158 0.125 9.37939 0.125 8.74658V7.62158C0.125 7.02393 0.617188 6.49658 1.25 6.49658H6.3125V1.43408C6.3125 0.836426 6.80469 0.309082 7.4375 0.309082H8.5625C9.16016 0.309082 9.6875 0.836426 9.6875 1.43408V6.49658H14.75Z" fill="#1D2431"/>
</svg>
