<svg width="24" height="23" viewBox="0 0 24 23" fill="none" xmlns="http://www.w3.org/2000/svg">
<path d="M13.0806 0.823221L16.1906 7.12322L23.1446 8.13522C23.2982 8.15737 23.4425 8.22209 23.5612 8.32204C23.6799 8.422 23.7683 8.5532 23.8163 8.70079C23.8643 8.84838 23.87 9.00645 23.8327 9.15711C23.7955 9.30776 23.7168 9.44498 23.6056 9.55322L18.5726 14.4532L19.7606 21.3792C19.7868 21.5322 19.7697 21.6895 19.7112 21.8332C19.6527 21.977 19.5552 22.1015 19.4296 22.1928C19.304 22.284 19.1555 22.3383 19.0006 22.3495C18.8458 22.3607 18.691 22.3284 18.5536 22.2562L12.3346 18.9912L6.11459 22.2592C5.97707 22.3311 5.82221 22.3631 5.66747 22.3517C5.51273 22.3403 5.36425 22.2859 5.23877 22.1946C5.1133 22.1033 5.01581 21.9788 4.95729 21.8351C4.89878 21.6914 4.88156 21.5342 4.90759 21.3812L6.09559 14.4592L1.06259 9.55922C0.951379 9.45098 0.8727 9.31376 0.835463 9.16311C0.798227 9.01245 0.803922 8.85438 0.851903 8.70679C0.899884 8.5592 0.988234 8.428 1.10695 8.32804C1.22566 8.22809 1.36999 8.16337 1.52359 8.14122L8.47759 7.12422L11.5876 0.824221C11.6564 0.685048 11.7627 0.56787 11.8946 0.485906C12.0264 0.403943 12.1785 0.360456 12.3338 0.360352C12.489 0.360248 12.6412 0.403531 12.7732 0.485318C12.9051 0.567105 13.0116 0.684141 13.0806 0.823221Z" fill="#FFB33C"/>
</svg>
