<svg width="14" height="15" viewBox="0 0 14 15" fill="none" xmlns="http://www.w3.org/2000/svg">
<path d="M7.00055 1.73633C10.1566 1.73633 12.7148 4.29461 12.7148 7.45061C12.7148 10.6066 10.1566 13.1649 7.00055 13.1649C5.99069 13.1666 4.9986 12.8994 4.12626 12.3906L1.28855 13.1649L2.06112 10.326C1.55195 9.45343 1.28449 8.46091 1.28626 7.45061C1.28626 4.29461 3.84455 1.73633 7.00055 1.73633ZM5.05312 4.7649L4.93884 4.76947C4.86494 4.77456 4.79275 4.79397 4.72626 4.82661C4.66431 4.86176 4.60773 4.90564 4.55826 4.9569C4.48969 5.02147 4.45084 5.07747 4.40912 5.13176C4.19776 5.40656 4.08396 5.74394 4.08569 6.09061C4.08684 6.37061 4.15998 6.64319 4.27426 6.89804C4.50798 7.41347 4.89255 7.95919 5.39998 8.4649C5.52226 8.58661 5.64226 8.7089 5.77141 8.82261C6.40194 9.3777 7.15328 9.77803 7.96569 9.99176L8.29026 10.0415C8.39598 10.0472 8.50169 10.0392 8.60798 10.034C8.77437 10.0253 8.93683 9.98022 9.08398 9.90204C9.15875 9.86338 9.23177 9.82144 9.30284 9.77633C9.30284 9.77633 9.32703 9.75995 9.37426 9.7249C9.45141 9.66776 9.49884 9.62719 9.56284 9.56033C9.61084 9.5108 9.65084 9.45328 9.68284 9.38776C9.72741 9.29461 9.77198 9.1169 9.79026 8.9689C9.80398 8.85576 9.79998 8.79404 9.79826 8.75576C9.79598 8.69461 9.74512 8.63119 9.68969 8.60433L9.35712 8.45519C9.35712 8.45519 8.85998 8.23861 8.55598 8.10033C8.52416 8.08648 8.49008 8.07854 8.45541 8.0769C8.41631 8.07281 8.37678 8.07717 8.33951 8.08969C8.30225 8.10221 8.26811 8.1226 8.23941 8.14947C8.23655 8.14833 8.19826 8.1809 7.78512 8.68147C7.76141 8.71334 7.72874 8.73742 7.69129 8.75065C7.65384 8.76388 7.6133 8.76566 7.57484 8.75576C7.53759 8.74583 7.50112 8.73323 7.46569 8.71804C7.39484 8.68833 7.37026 8.6769 7.32169 8.65633C6.99362 8.51342 6.68994 8.32003 6.42169 8.08319C6.34969 8.02033 6.28284 7.95176 6.21426 7.88547C5.98947 7.67016 5.79355 7.42661 5.63141 7.1609L5.59769 7.10661C5.57384 7.06993 5.55429 7.03062 5.53941 6.98947C5.51769 6.90547 5.57426 6.83804 5.57426 6.83804C5.57426 6.83804 5.71312 6.68604 5.77769 6.60376C5.84055 6.52376 5.89369 6.44604 5.92798 6.39061C5.99541 6.28204 6.01655 6.17061 5.98112 6.08433C5.82112 5.69347 5.65579 5.30471 5.48512 4.91804C5.45141 4.84147 5.35141 4.78661 5.26055 4.77576C5.22969 4.77195 5.19884 4.7689 5.16798 4.76661C5.09125 4.76221 5.01432 4.76298 4.93769 4.7689L5.05312 4.7649Z" fill="black"/>
</svg>
